<?xml version="1.0" encoding="UTF-8"?><!DOCTYPE svg PUBLIC "-//W3C//DTD SVG 1.1//EN" "http://www.w3.org/Graphics/SVG/1.1/DTD/svg11.dtd"><svg xmlns="http://www.w3.org/2000/svg"><symbol id="icon-chevrone-circle" viewBox="0 0 485 485">
    <path d="M413.974 71.026C368.171 25.225 307.274 0 242.5 0S116.829 25.225 71.026 71.026C25.225 116.829 0 177.726 0 242.5s25.225 125.671 71.026 171.474C116.829 459.775 177.726 485 242.5 485s125.671-25.225 171.474-71.026C459.775 368.171 485 307.274 485 242.5s-25.225-125.671-71.026-171.474zM242.5 455C125.327 455 30 359.673 30 242.5S125.327 30 242.5 30 455 125.327 455 242.5 359.673 455 242.5 455z"/>
    <path d="M193.228 135.589L299.791 242.5 193.228 349.411l21.248 21.178L342.148 242.5 214.476 114.411z"/>
</symbol><symbol id="icon-chevrone" viewBox="0 0 511.949 511.949">
    <path d="M386.235 248.308L140.902 2.975c-4.267-4.053-10.987-3.947-15.04.213a10.763 10.763 0 0 0 0 14.827l237.76 237.76-237.76 237.867c-4.267 4.053-4.373 10.88-.213 15.04 4.053 4.267 10.88 4.373 15.04.213l.213-.213 245.333-245.333a10.624 10.624 0 0 0 0-15.041z"/>
</symbol><symbol id="icon-inst" viewBox="0 0 512 512">
    <path d="M352 0H160C71.648 0 0 71.648 0 160v192c0 88.352 71.648 160 160 160h192c88.352 0 160-71.648 160-160V160C512 71.648 440.352 0 352 0zm112 352c0 61.76-50.24 112-112 112H160c-61.76 0-112-50.24-112-112V160C48 98.24 98.24 48 160 48h192c61.76 0 112 50.24 112 112v192z"/>
    <path d="M256 128c-70.688 0-128 57.312-128 128s57.312 128 128 128 128-57.312 128-128-57.312-128-128-128zm0 208c-44.096 0-80-35.904-80-80 0-44.128 35.904-80 80-80s80 35.872 80 80c0 44.096-35.904 80-80 80z"/>
    <circle cx="393.6" cy="118.4" r="17.056"/>
</symbol><symbol id="icon-mouse" viewBox="0 0 210.414 210.414">
    <path d="M105.207 0C66.532 0 35.069 31.45 35.069 70.104v70.21c0 38.653 31.463 70.1 70.138 70.1 38.675 0 70.138-31.446 70.138-70.1v-70.21C175.345 31.45 143.881 0 105.207 0zm62.345 140.314c0 34.357-27.968 62.307-62.345 62.307-34.377 0-62.345-27.95-62.345-62.307v-70.21c0-34.357 27.968-62.311 62.345-62.311 34.377 0 62.345 27.953 62.345 62.311v70.21z"/>
    <path d="M105.207 23.379a3.896 3.896 0 0 0-3.897 3.897v35.286a3.896 3.896 0 0 0 3.897 3.897 3.896 3.896 0 0 0 3.897-3.897V27.276a3.897 3.897 0 0 0-3.897-3.897z"/>
</symbol><symbol id="icon-vk" viewBox="0 0 96 96">
    <path d="M53.174 52.908c-1.539-.896-3.678-.896-5.416-.896h-5.707v11.76h5.238c1.939 0 4.412.139 6.084-1.035 1.535-1.033 2.404-3.061 2.404-4.992 0-1.794-1.068-3.94-2.603-4.837zm-2.153-10.043c1.27-.967 1.936-2.691 1.936-4.279 0-1.725-.801-3.381-2.27-4.277-1.537-.896-4.346-.689-6.15-.689h-2.486v10.35h3.289c1.871-.001 4.078.137 5.681-1.105zM79.125 0H16.873C7.555 0 0 7.555 0 16.875v62.25C0 88.443 7.555 96 16.873 96h62.252C88.443 96 96 88.443 96 79.125v-62.25C96 7.555 88.443 0 79.125 0zM50.604 72.535H30.992V25.201H52.42c6.207 0 11.934 3.951 11.934 10.92 0 5.381-3.004 9.066-6.836 10.211v.139c5.682 1.174 9.74 4.26 9.74 11.705 0 6.89-4.692 14.359-16.654 14.359z"/>
</symbol></svg>