<?xml version="1.0" encoding="UTF-8"?><!DOCTYPE svg PUBLIC "-//W3C//DTD SVG 1.1//EN" "http://www.w3.org/Graphics/SVG/1.1/DTD/svg11.dtd"><svg xmlns="http://www.w3.org/2000/svg"><symbol id="icon-chevrone-circle" viewBox="0 0 485 485">
    <path d="M413.974 71.026C368.171 25.225 307.274 0 242.5 0S116.829 25.225 71.026 71.026C25.225 116.829 0 177.726 0 242.5s25.225 125.671 71.026 171.474C116.829 459.775 177.726 485 242.5 485s125.671-25.225 171.474-71.026C459.775 368.171 485 307.274 485 242.5s-25.225-125.671-71.026-171.474zM242.5 455C125.327 455 30 359.673 30 242.5S125.327 30 242.5 30 455 125.327 455 242.5 359.673 455 242.5 455z"/>
    <path d="M193.228 135.589L299.791 242.5 193.228 349.411l21.248 21.178L342.148 242.5 214.476 114.411z"/>
</symbol><symbol id="icon-chevrone" viewBox="0 0 511.949 511.949">
    <path d="M386.235 248.308L140.902 2.975c-4.267-4.053-10.987-3.947-15.04.213a10.763 10.763 0 0 0 0 14.827l237.76 237.76-237.76 237.867c-4.267 4.053-4.373 10.88-.213 15.04 4.053 4.267 10.88 4.373 15.04.213l.213-.213 245.333-245.333a10.624 10.624 0 0 0 0-15.041z"/>
</symbol><symbol id="icon-close" viewBox="0 0 47.971 47.971">
    <path d="M28.228 23.986L47.092 5.122a2.998 2.998 0 0 0 0-4.242 2.998 2.998 0 0 0-4.242 0L23.986 19.744 5.121.88a2.998 2.998 0 0 0-4.242 0 2.998 2.998 0 0 0 0 4.242l18.865 18.864L.879 42.85a2.998 2.998 0 1 0 4.242 4.241l18.865-18.864L42.85 47.091c.586.586 1.354.879 2.121.879s1.535-.293 2.121-.879a2.998 2.998 0 0 0 0-4.242L28.228 23.986z"/>
</symbol><symbol id="icon-inst" viewBox="0 0 512 512">
    <path d="M352 0H160C71.648 0 0 71.648 0 160v192c0 88.352 71.648 160 160 160h192c88.352 0 160-71.648 160-160V160C512 71.648 440.352 0 352 0zm112 352c0 61.76-50.24 112-112 112H160c-61.76 0-112-50.24-112-112V160C48 98.24 98.24 48 160 48h192c61.76 0 112 50.24 112 112v192z"/>
    <path d="M256 128c-70.688 0-128 57.312-128 128s57.312 128 128 128 128-57.312 128-128-57.312-128-128-128zm0 208c-44.096 0-80-35.904-80-80 0-44.128 35.904-80 80-80s80 35.872 80 80c0 44.096-35.904 80-80 80z"/>
    <circle cx="393.6" cy="118.4" r="17.056"/>
</symbol><symbol id="icon-message" viewBox="0 0 370.88 370.88">
    <path d="M355.6 66.16H15.28C6.841 66.16 0 73.001 0 81.44v208c0 8.439 6.841 15.28 15.28 15.28H355.6c8.439 0 15.28-6.841 15.28-15.28v-208c0-8.439-6.841-15.28-15.28-15.28zm-340.32 12H355.6a3.28 3.28 0 0 1 3.12 2.32L185.44 188.72 12.16 80.48a3.28 3.28 0 0 1 3.12-2.32zm-3.28 16L136.64 172 12 270.88V94.16zm346.88 195.2a3.28 3.28 0 0 1-3.28 3.28H15.28a3.28 3.28 0 0 1-3.28-3.28v-3.2l135.44-107.04 34.8 21.76a5.999 5.999 0 0 0 6.4 0l34.8-21.76 135.44 107.04v3.2zm0-18.48l-124.96-98.56 124.96-77.44v176z"/>
</symbol><symbol id="icon-mouse" viewBox="0 0 210.414 210.414">
    <path d="M105.207 0C66.532 0 35.069 31.45 35.069 70.104v70.21c0 38.653 31.463 70.1 70.138 70.1 38.675 0 70.138-31.446 70.138-70.1v-70.21C175.345 31.45 143.881 0 105.207 0zm62.345 140.314c0 34.357-27.968 62.307-62.345 62.307-34.377 0-62.345-27.95-62.345-62.307v-70.21c0-34.357 27.968-62.311 62.345-62.311 34.377 0 62.345 27.953 62.345 62.311v70.21z"/>
    <path d="M105.207 23.379a3.896 3.896 0 0 0-3.897 3.897v35.286a3.896 3.896 0 0 0 3.897 3.897 3.896 3.896 0 0 0 3.897-3.897V27.276a3.897 3.897 0 0 0-3.897-3.897z"/>
</symbol><symbol id="icon-paper-plane" viewBox="0 0 60.062 60.062">
    <path d="M60.046 11.196c.004-.024.011-.048.013-.072a1.054 1.054 0 0 0-.01-.224c-.002-.019.001-.037-.002-.056a1.003 1.003 0 0 0-.1-.289c-.008-.016-.019-.031-.028-.047-.002-.002-.002-.005-.003-.008-.001-.002-.004-.003-.005-.006l-.02-.033a.987.987 0 0 0-.221-.23c-.019-.014-.041-.022-.061-.035a.959.959 0 0 0-.236-.116c-.037-.012-.074-.018-.112-.025a.966.966 0 0 0-.34-.011c-.026.004-.051 0-.077.006L.798 22.046a1 1 0 0 0-.265 1.864l16.632 8.773 2.917 16.187c-.002.012.001.025 0 .037a.94.94 0 0 0 .019.354c.023.095.06.184.11.268.01.016.01.035.021.051.003.005.008.009.012.013.013.019.031.034.046.053.047.058.096.111.152.156.009.007.015.018.025.025.015.011.032.014.047.024.061.04.124.073.191.099.027.01.052.022.08.03.09.026.183.044.277.044h.003l.012-.002a.993.993 0 0 0 .763-.313l11.079-7.386 11.6 7.54a1.005 1.005 0 0 0 .86.11 1 1 0 0 0 .623-.604L59.998 11.38a.915.915 0 0 0 .033-.105c.004-.015.005-.03.008-.044l.007-.035zm-11.582 6.383L24.471 35.22c-.039.029-.07.065-.104.099-.013.012-.026.022-.037.035a1.01 1.01 0 0 0-.059.071c-.018.024-.032.049-.048.074-.037.06-.068.122-.092.188-.005.013-.013.023-.017.036-.001.004-.005.006-.006.01l-2.75 8.937-2.179-12.091 29.285-15zM22.908 46.594l2.726-9.004 4.244 2.759 1.214.789-4.124 2.749-4.06 2.707zm29.136-33.096L18.071 30.899l-14.14-7.458 48.113-9.943zm-7.485 34.006L29.154 37.492l-2.333-1.517 30.154-22.172-12.416 33.701z"/>
</symbol><symbol id="icon-phone-call" viewBox="0 0 463.009 463.009">
    <path d="M462.692 381.085c-1.472-11.126-7.895-20.719-17.62-26.318L330.846 289c-13.99-8.055-31.738-5.71-43.157 5.708l-22.499 22.499c-5.987 5.988-15.459 6.518-22.028 1.231-17.737-14.272-35.201-29.979-51.906-46.685-16.705-16.705-32.412-34.168-46.685-51.906-5.287-6.57-4.758-16.041 1.231-22.029l22.498-22.499c11.418-11.417 13.766-29.163 5.709-43.156L108.242 17.937C102.642 8.211 93.05 1.789 81.924.317c-11.127-1.475-22.06 2.236-29.996 10.172L18.027 44.391c-23.661 23.662-24.041 66.944-1.07 121.875 22.088 52.818 63.308 110.962 116.065 163.721 52.759 52.758 110.903 93.978 163.722 116.066 27.039 11.307 51.253 16.957 71.697 16.956 21.088 0 38.163-6.013 50.178-18.027l33.901-33.902c7.935-7.936 11.643-18.869 10.172-29.995zm-139.33-79.086l114.226 65.767c5.649 3.252 9.379 8.824 10.233 15.286.718 5.423-.691 10.763-3.885 15.066L292.131 311.48l6.165-6.165c6.631-6.631 16.941-7.994 25.066-3.316zM79.956 15.188c6.463.855 12.034 4.585 15.286 10.234l65.767 114.226c4.68 8.127 3.316 18.435-3.315 25.065l-5.663 5.663L64.917 19.073c3.561-2.637 7.82-4.069 12.26-4.069.921 0 1.85.061 2.779.184zm328.055 419.187c-18.798 18.798-57.244 18.01-105.48-2.162-51.06-21.352-107.491-61.424-158.901-112.833-51.41-51.41-91.482-107.842-112.834-158.901-20.173-48.237-20.96-86.683-2.162-105.482l25.167-25.168 87.245 151.532-5.851 5.851c-11.415 11.416-12.409 29.488-2.311 42.04 14.609 18.156 30.68 36.024 47.764 53.108 17.086 17.085 34.954 33.156 53.109 47.765 12.55 10.098 30.622 9.105 42.04-2.312l5.338-5.338 152.016 86.759-25.14 25.141z"/>
</symbol><symbol id="icon-plus" viewBox="0 0 31.444 31.444">
    <path d="M1.119 16.841a1.118 1.118 0 0 1-1.111-1.127c0-.619.492-1.111 1.111-1.111h13.475V1.127A1.133 1.133 0 0 1 15.722 0c.619 0 1.111.508 1.111 1.127v13.476h13.475c.619 0 1.127.492 1.127 1.111s-.508 1.127-1.127 1.127H16.833v13.476c0 .619-.492 1.127-1.111 1.127a1.131 1.131 0 0 1-1.127-1.127V16.841H1.119z"/>
</symbol><symbol id="icon-vk" viewBox="0 0 96 96">
    <path d="M53.174 52.908c-1.539-.896-3.678-.896-5.416-.896h-5.707v11.76h5.238c1.939 0 4.412.139 6.084-1.035 1.535-1.033 2.404-3.061 2.404-4.992 0-1.794-1.068-3.94-2.603-4.837zm-2.153-10.043c1.27-.967 1.936-2.691 1.936-4.279 0-1.725-.801-3.381-2.27-4.277-1.537-.896-4.346-.689-6.15-.689h-2.486v10.35h3.289c1.871-.001 4.078.137 5.681-1.105zM79.125 0H16.873C7.555 0 0 7.555 0 16.875v62.25C0 88.443 7.555 96 16.873 96h62.252C88.443 96 96 88.443 96 79.125v-62.25C96 7.555 88.443 0 79.125 0zM50.604 72.535H30.992V25.201H52.42c6.207 0 11.934 3.951 11.934 10.92 0 5.381-3.004 9.066-6.836 10.211v.139c5.682 1.174 9.74 4.26 9.74 11.705 0 6.89-4.692 14.359-16.654 14.359z"/>
</symbol><symbol id="icon-whatsapp" viewBox="0 0 52 52">
    <path d="M26 0C11.663 0 0 11.663 0 26c0 4.891 1.359 9.639 3.937 13.762C2.91 43.36 1.055 50.166 1.035 50.237a.996.996 0 0 0 .27.981c.263.253.643.343.989.237l10.306-3.17A25.936 25.936 0 0 0 26 52c14.337 0 26-11.663 26-26S40.337 0 26 0zm0 50a23.94 23.94 0 0 1-12.731-3.651 1 1 0 0 0-.825-.108l-8.999 2.77a991.452 991.452 0 0 1 2.538-9.13c.08-.278.035-.578-.122-.821A23.907 23.907 0 0 1 2 26C2 12.767 12.767 2 26 2s24 10.767 24 24-10.767 24-24 24z"/>
    <path d="M42.985 32.126c-1.846-1.025-3.418-2.053-4.565-2.803-.876-.572-1.509-.985-1.973-1.218-1.297-.647-2.28-.19-2.654.188a1 1 0 0 0-.125.152c-1.347 2.021-3.106 3.954-3.621 4.058-.595-.093-3.38-1.676-6.148-3.981-2.826-2.355-4.604-4.61-4.865-6.146C20.847 20.51 21.5 19.336 21.5 18c0-1.377-3.212-7.126-3.793-7.707-.583-.582-1.896-.673-3.903-.273a1.01 1.01 0 0 0-.511.273c-.243.243-5.929 6.04-3.227 13.066 2.966 7.711 10.579 16.674 20.285 18.13 1.103.165 2.137.247 3.105.247 5.71 0 9.08-2.873 10.029-8.572a.996.996 0 0 0-.5-1.038zm-12.337 7.385c-10.264-1.539-16.729-11.708-18.715-16.87-1.97-5.12 1.663-9.685 2.575-10.717.742-.126 1.523-.179 1.849-.128.681.947 3.039 5.402 3.143 6.204 0 .525-.171 1.256-2.207 3.293A.996.996 0 0 0 17 22c0 5.236 11.044 12.5 13 12.5 1.701 0 3.919-2.859 5.182-4.722a.949.949 0 0 1 .371.116c.36.181.984.588 1.773 1.104 1.042.681 2.426 1.585 4.06 2.522-.742 3.57-2.816 7.181-10.738 5.991z"/>
</symbol></svg>